<svg xmlns="http://www.w3.org/2000/svg" viewBox="0 0 100 100">
  <defs>
    <linearGradient id="bg" x1="0" y1="0" x2="0" y2="1">
      <stop offset="0" stop-color="#ffd6ec"/>
      <stop offset="1" stop-color="#ffb0d8"/>
    </linearGradient>
  </defs>
  <rect width="100" height="100" rx="22" fill="url(#bg)"/>
  <!-- rainbow hair arcs -->
  <g fill="none" stroke-linecap="round">
    <path d="M22 62 A28 28 0 0 1 78 62" stroke="#ff3b6b" stroke-width="7"/>
    <path d="M26 62 A24 24 0 0 1 74 62" stroke="#ff9f1c" stroke-width="7"/>
    <path d="M30 62 A20 20 0 0 1 70 62" stroke="#ffd60a" stroke-width="7"/>
    <path d="M34 62 A16 16 0 0 1 66 62" stroke="#3ddc55" stroke-width="7"/>
    <path d="M38 62 A12 12 0 0 1 62 62" stroke="#3aa7ff" stroke-width="7"/>
    <path d="M42 62 A8 8 0 0 1 58 62" stroke="#8f5bff" stroke-width="7"/>
  </g>
  <!-- face -->
  <circle cx="50" cy="66" r="17" fill="#fff5f8"/>
  <circle cx="44" cy="64" r="2.6" fill="#ff4fa0"/>
  <circle cx="56" cy="64" r="2.6" fill="#ff4fa0"/>
  <path d="M45 71 Q50 76 55 71" fill="none" stroke="#e0568f" stroke-width="2.4" stroke-linecap="round"/>
  <!-- tiara -->
  <path d="M36 33 L40 22 L46 29 L50 18 L54 29 L60 22 L64 33 Z" fill="#ffd24a"/>
  <circle cx="50" cy="26" r="3.4" fill="#ff2d8d"/>
  <!-- candy sparkles -->
  <circle cx="16" cy="24" r="4" fill="#8b5a2b"/>
  <circle cx="84" cy="26" r="5" fill="#ff3b5c"/>
  <circle cx="84" cy="26" r="2.4" fill="#fff"/>
  <circle cx="14" cy="82" r="4" fill="#3ddc55"/>
  <circle cx="86" cy="84" r="4" fill="#3aa7ff"/>
</svg>
